<svg id="svg" version="1.1" xmlns="http://www.w3.org/2000/svg" viewBox="0 0 3622 336" style="display: block;"><path d="M0 0 C1195.26 0 2390.52 0 3622 0 C3622 110.88 3622 221.76 3622 336 C2426.74 336 1231.48 336 0 336 C0 225.12 0 114.24 0 0 Z " transform="translate(0,0)" style="fill: #FEFEFE;"/><path d="M0 0 C0 109.23 0 218.46 0 331 C-13.53 331 -27.06 331 -41 331 C-41 300.97 -41 270.94 -41 240 C-66.41 240 -91.82 240 -118 240 C-118 226.47 -118 212.94 -118 199 C-92.59 199 -67.18 199 -41 199 C-41 166.66 -41 134.32 -41 101 C-41.66 101 -42.32 101 -43 101 C-43.21418013 101.53908084 -43.42836025 102.07816168 -43.64903069 102.6335783 C-45.48935573 105.85717862 -47.99938877 108.2713116 -50.61550903 110.86274719 C-51.19552134 111.44517392 -51.77553365 112.02760064 -52.3731221 112.62767667 C-54.31970118 114.57989548 -56.27335248 116.52487843 -58.22705078 118.4699707 C-59.62363728 119.86763006 -61.01979072 121.26572225 -62.4155426 122.66421509 C-66.21085265 126.4643779 -70.01239337 130.25825141 -73.81519556 134.050915 C-77.79592373 138.02286142 -81.77138072 142.00007719 -85.74752808 145.97660828 C-92.43081972 152.6589628 -99.11797523 159.33743078 -105.80761719 166.01342773 C-113.53159976 173.72171323 -121.25037236 181.43518381 -128.96614277 189.15168887 C-137.18725365 197.3734767 -145.41217476 205.59144475 -153.63820791 213.80830741 C-156.00342007 216.17139277 -158.36792496 218.53518387 -160.7322731 220.89913368 C-164.45793634 224.6237881 -168.18615513 228.34586628 -171.91631889 232.06601334 C-173.28126641 233.42805364 -174.6453849 234.79092535 -176.00858879 236.15471077 C-188.00537542 248.15467661 -188.00537542 248.15467661 -194.23683167 253.46296024 C-197.53579076 256.33882365 -200.59669038 259.45784623 -203.68530273 262.5559082 C-204.40662888 263.27548203 -205.12795502 263.99505585 -205.87113953 264.73643494 C-208.22779336 267.08872727 -210.58081789 269.44461065 -212.93359375 271.80078125 C-214.57871647 273.44522973 -216.22398755 275.0895298 -217.86940002 276.73368835 C-221.30282528 280.16564476 -224.73444861 283.59939001 -228.16479492 287.03442383 C-232.56879793 291.4441507 -236.97731146 295.84933679 -241.3871603 300.25321674 C-244.7783191 303.64077097 -248.16710369 307.03069216 -251.55516243 310.42134666 C-253.18079221 312.04764461 -254.80716814 313.67319707 -256.43429375 315.29799843 C-258.69877176 317.55994875 -260.9600398 319.82505904 -263.22045898 322.09106445 C-263.89625 322.76483124 -264.57204102 323.43859802 -265.26831055 324.13278198 C-265.88077133 324.74806259 -266.49323212 325.3633432 -267.12425232 325.99726868 C-267.92583598 326.79941787 -267.92583598 326.79941787 -268.74361324 327.6177721 C-270.11144497 328.99732712 -270.11144497 328.99732712 -271 331 C-290.8 331 -310.6 331 -331 331 C-331 330.34 -331 329.68 -331 329 C-329.71334785 327.73279423 -329.71334785 327.73279423 -327.82372952 326.19163418 C-321.48297522 320.79153986 -315.69624173 314.82735929 -309.82032776 308.93385315 C-308.48616562 307.59941072 -307.15178141 306.2651903 -305.81719536 304.93117183 C-302.16364837 301.27791949 -298.5132173 297.62156759 -294.86329138 293.96469796 C-290.92178569 290.01680483 -286.97736431 286.07182674 -283.03327942 282.12651062 C-276.20449482 275.29484258 -269.37748803 268.46140215 -262.55163765 261.62680244 C-252.68206427 251.74467081 -242.8092494 241.86578268 -232.93554615 231.98777758 C-216.91466544 215.95983379 -200.89564859 199.93002901 -184.87817383 183.89868164 C-184.39922833 183.4193225 -183.92028283 182.93996335 -183.42682383 182.44607818 C-176.13865604 175.15161191 -168.85057034 167.85706363 -161.5625 160.5625 C-153.77812498 152.77119147 -145.99371623 144.97991664 -138.20922852 137.1887207 C-137.72947778 136.70855538 -137.24972705 136.22839006 -136.75543842 135.73367428 C-120.30455822 119.26860316 -103.85172519 102.80548511 -87.39733738 86.34391922 C-77.54172973 76.48382108 -67.68791011 66.62194237 -57.83635657 56.7577936 C-51.09610648 50.0091465 -44.35411514 43.26224236 -37.61072303 36.51673485 C-33.7146695 32.61933049 -29.81946827 28.72108347 -25.92642212 24.8206749 C-22.36921407 21.25676454 -18.80975818 17.69511602 -15.24843227 14.13532066 C-13.95437794 12.84099281 -12.66118696 11.54580115 -11.36890657 10.24970216 C-9.62471103 8.50058841 -7.87752634 6.75451884 -6.12949467 5.00924015 C-5.61780923 4.49464185 -5.10612379 3.98004355 -4.57893273 3.44985136 C-1.11414143 0 -1.11414143 0 0 0 Z " transform="translate(336,1)" style="fill: #FE6201;"/><path d="M0 0 C102.04887218 0 102.04887218 0 127.16796875 24.078125 C145.13810302 42.84770432 150.74089591 69.42823043 150.3359375 94.5625 C150.10280113 100.15928677 149.15747103 105.52783476 148 111 C147.73960937 112.25167969 147.47921875 113.50335938 147.2109375 114.79296875 C143.75275526 128.8357742 137.80254116 141.25529231 128 152 C127.48308594 152.6084375 126.96617187 153.216875 126.43359375 153.84375 C114.30919011 167.21401968 96.82703821 172.51278981 80 177 C53.6 177 27.2 177 0 177 C0 118.59 0 60.18 0 0 Z " transform="translate(2704,81)" style="fill: #000000;"/><path d="M0 0 C59.5706619 0 59.5706619 0 76 16 C88.57236793 29.13564607 93.58895084 45.68165991 93.3125 63.5625 C93.31572266 64.60857422 93.31894531 65.65464844 93.32226562 66.73242188 C93.25396158 76.73585915 91.98691839 85.98346411 87.8125 95.125 C87.50425293 95.80949219 87.19600586 96.49398437 86.87841797 97.19921875 C80.58815862 110.68154382 69.95130247 120.69192869 56 126 C44 129 44 129 0 129 C0 86.43 0 43.86 0 0 Z " transform="translate(2732,105)" style="fill: #FCFCFC;"/><path d="M0 0 C1.39456452 0.00667256 2.78911118 0.01863093 4.18359375 0.03515625 C5.2499707 0.04192383 5.2499707 0.04192383 6.33789062 0.04882812 C8.09899388 0.06064761 9.86005411 0.07858362 11.62109375 0.09765625 C16.3456266 10.08221264 20.65215029 20.20488134 24.87109375 30.41015625 C25.54157393 32.02655457 26.21231297 33.64284554 26.88330078 35.2590332 C28.20557877 38.44467374 29.52667089 41.63080136 30.84667969 44.81738281 C33.05376592 50.14389548 35.27471367 55.46459266 37.49609375 60.78515625 C42.43295175 72.62533783 47.34092593 84.47750701 52.25280762 96.32806396 C56.41033161 106.35831049 60.56894705 116.38806105 64.74609375 126.41015625 C65.29402588 127.72729614 65.29402588 127.72729614 65.85302734 129.07104492 C68.05993988 134.37150016 70.28067218 139.66595288 72.51150513 144.95637512 C73.91121639 148.27827738 75.30663499 151.60197474 76.70159912 154.9258728 C77.39386074 156.57238589 78.08805252 158.21808888 78.78424072 159.86294556 C79.75815757 162.1644321 80.72545294 164.46859953 81.69140625 166.7734375 C81.98772949 167.46912842 82.28405273 168.16481934 82.58935547 168.8815918 C83.80170239 171.79020564 84.62109375 173.91227241 84.62109375 177.09765625 C78.68109375 177.09765625 72.74109375 177.09765625 66.62109375 177.09765625 C65.09364958 173.4260164 63.56737017 169.7539154 62.04345703 166.08081055 C61.28529486 164.25458221 60.52550421 162.42903019 59.765625 160.60351562 C54.59935157 148.14560311 49.63149736 135.62366527 44.62109375 123.09765625 C17.56109375 122.76765625 -9.49890625 122.43765625 -37.37890625 122.09765625 C-37.70890625 123.74765625 -38.03890625 125.39765625 -38.37890625 127.09765625 C-38.9889625 128.83132263 -39.6420819 130.55019952 -40.32836914 132.25512695 C-40.72870865 133.2557869 -41.12904816 134.25644684 -41.54151917 135.28742981 C-41.97383347 136.35531235 -42.40614777 137.42319489 -42.8515625 138.5234375 C-43.29406845 139.62616501 -43.7365744 140.72889252 -44.19248962 141.86503601 C-45.60475302 145.38171687 -47.0229973 148.89595023 -48.44140625 152.41015625 C-49.40078592 154.79606505 -50.35977499 157.18213095 -51.31835938 159.56835938 C-53.6673488 165.41329001 -56.02170455 171.25603298 -58.37890625 177.09765625 C-64.64890625 177.09765625 -70.91890625 177.09765625 -77.37890625 177.09765625 C-73.31627463 166.36126473 -68.97585357 155.7576619 -64.56640625 145.16015625 C-63.8147488 143.35043557 -63.06312176 141.54070227 -62.31152344 139.73095703 C-55.65629041 123.71837426 -48.92947135 107.73615959 -42.18786621 91.75979614 C-37.69271384 81.10473201 -33.22623137 70.43764396 -28.75759888 59.7714386 C-26.84161791 55.19913506 -24.92136993 50.62863493 -23 46.05859375 C-21.87605801 43.38421709 -20.7524297 40.70970877 -19.62890625 38.03515625 C-19.35805206 37.39061493 -19.08719788 36.74607361 -18.80813599 36.08200073 C-14.80751134 26.55796027 -10.86137308 17.01287193 -7.00488281 7.42944336 C-6.6694043 6.60065674 -6.33392578 5.77187012 -5.98828125 4.91796875 C-5.69920898 4.19883301 -5.41013672 3.47969727 -5.11230469 2.73876953 C-3.77610837 -0.25121438 -3.61225522 0.10440044 0 0 Z " transform="translate(529.37890625,74.90234375)" style="fill: #020202;"/><path d="M0 0 C1.47146484 -0.01160156 1.47146484 -0.01160156 2.97265625 -0.0234375 C16.19809107 0.01178337 28.1745387 3.46054806 38.0625 12.625 C38.866875 13.49125 39.67125 14.3575 40.5 15.25 C41.325 16.136875 42.15 17.02375 43 17.9375 C49.85570549 26.35033733 52.73617049 36.28545691 52.77124023 46.99536133 C52.77646698 47.72322845 52.78169373 48.45109558 52.78707886 49.20101929 C52.7972419 50.76527083 52.80308567 52.32955545 52.80496025 53.89383888 C52.80864977 56.36962569 52.82544172 58.84502117 52.84571838 61.32072449 C52.90091586 68.35363515 52.93192074 75.38659957 52.95629883 82.41967773 C52.97215007 86.7343385 53.0023277 91.04871316 53.04106331 95.36322594 C53.05271881 97.00466573 53.05864371 98.64615654 53.05874443 100.28763771 C53.05893596 102.57593504 53.07715804 104.86343723 53.09936523 107.15161133 C53.10443588 108.4531868 53.10950653 109.75476227 53.11473083 111.09577942 C53.23118516 114.21308467 53.23118516 114.21308467 54.90003967 116.13114929 C56.51436997 117.31805295 56.51436997 117.31805295 58.5 118.25 C58.5 122.54 58.5 126.83 58.5 131.25 C47.76516052 132.84571938 47.76516052 132.84571938 42.5 129.25 C40.0343144 127.20943261 39.54342025 126.38026076 38.5 123.25 C38.431009 121.18854893 38.41532273 119.12498599 38.4375 117.0625 C38.44652344 115.97582031 38.45554687 114.88914062 38.46484375 113.76953125 C38.47644531 112.93808594 38.48804688 112.10664063 38.5 111.25 C37.84 111.25 37.18 111.25 36.5 111.25 C36.23445313 111.84296875 35.96890625 112.4359375 35.6953125 113.046875 C30.4424658 122.72859245 17.25041021 127.77909513 7.39453125 131.38671875 C-7.55273519 135.61318719 -23.28061468 135.60731485 -37.3125 128.5625 C-47.37135404 122.5827452 -53.55055901 114.43795556 -57.14453125 103.2421875 C-58.96245431 93.05382747 -57.22386102 83.35840479 -51.875 74.5625 C-44.60779731 64.47015005 -32.9493094 58.32339145 -20.8671875 56.1015625 C-14.54261564 55.13990588 -8.32736014 54.9055773 -1.9375 54.9375 C-0.25491089 54.94160889 -0.25491089 54.94160889 1.46166992 54.94580078 C12.68510546 55.08484512 25.11779139 55.55862872 35.5 60.25 C35.20075452 39.96406964 35.20075452 39.96406964 24.64453125 23.16015625 C15.26213482 14.80315834 2.83684832 14.36749456 -9.09912109 15.01611328 C-19.60676674 16.0397379 -28.81929069 21.16828518 -37.671875 26.578125 C-40.5 28.25 -40.5 28.25 -43.5 29.25 C-44.50508801 27.46118264 -45.50392736 25.66885304 -46.5 23.875 C-47.056875 22.87726563 -47.61375 21.87953125 -48.1875 20.8515625 C-49.5 18.25 -49.5 18.25 -49.5 16.25 C-33.79502868 6.71570308 -18.68152647 -0.14729193 0 0 Z " transform="translate(991.5,120.75)" style="fill: #020202;"/><path d="M0 0 C14.56144942 8.3790611 24.38992114 20.36486476 28.82421875 36.6953125 C31.8937764 53.16466987 27.80003306 67.35351051 19.51171875 81.4453125 C12.16023562 91.96741414 1.0387473 98.83487129 -11.48828125 101.4453125 C-24.80453504 102.90813993 -35.96587253 99.6358321 -46.48828125 91.4453125 C-47.46796875 90.69121094 -48.44765625 89.93710938 -49.45703125 89.16015625 C-58.45238502 81.57714385 -64.6305518 68.67909238 -65.70263672 57.13769531 C-66.79426425 39.74647034 -63.04383589 26.29734294 -52.48828125 12.4453125 C-39.95734711 -1.73680971 -17.74671503 -7.96791287 0 0 Z " transform="translate(2381.48828125,138.5546875)" style="fill: #FDFDFD;"/><path d="M0 0 C12.98207638 7.75632773 21.52755372 18.39141729 26.6015625 32.671875 C30.0583996 47.89134331 28.13885005 64.20088258 19.96484375 77.47265625 C11.86497517 89.54882395 1.81588643 97.12872397 -12.53515625 100.47265625 C-25.88247411 101.9572777 -37.13268616 98.69303461 -47.8515625 90.7578125 C-57.44631652 82.81900587 -63.89153282 71.64597163 -66.53515625 59.47265625 C-67.95976581 41.09617535 -65.43295903 25.97851938 -53.7265625 11.1875 C-40.27832346 -3.32317788 -18.11632949 -9.12168624 0 0 Z " transform="translate(2525.53515625,139.52734375)" style="fill: #FDFDFD;"/><path d="M0 0 C2.53468719 1.70873531 4.95197214 3.50895831 7.36328125 5.38671875 C8.00136719 5.84820312 8.63945313 6.3096875 9.296875 6.78515625 C15.21012294 11.34191302 19.05366217 17.76748058 22.36328125 24.38671875 C22.47750873 25.7832703 22.53259421 27.18492031 22.55615234 28.5859375 C22.57221527 29.45444336 22.5882782 30.32294922 22.60482788 31.21777344 C22.64947319 35.21662568 22.69039946 39.21531151 22.71337891 43.21435547 C22.72986893 45.31505465 22.75706589 47.41569935 22.79541016 49.51611328 C22.85060463 52.55660907 22.87212413 55.59578716 22.88671875 58.63671875 C22.90938812 59.56315186 22.9320575 60.48958496 22.95541382 61.4440918 C22.92767503 70.14250468 19.67572263 77.74955872 13.55078125 84.01171875 C3.57035952 93.4553783 -10.6170216 98.94900677 -24.23046875 98.69921875 C-36.17711822 97.60319586 -47.50896492 91.53264777 -55.6875 82.83984375 C-66.66009345 69.03064799 -70.3550427 53.78425274 -68.63671875 36.38671875 C-66.03710437 22.63960541 -59.17902592 10.04493952 -47.88671875 1.69921875 C-33.28874124 -7.87463947 -15.27115777 -9.34368616 0 0 Z " transform="translate(1291.63671875,141.61328125)" style="fill: #FDFDFD;"/><path d="M0 0 C5.61 0 11.22 0 17 0 C17.00586624 2.06047073 17.01173248 4.12094147 17.01777649 6.24385071 C17.07437141 25.62416031 17.14741385 45.00435766 17.23571491 64.38454914 C17.2807179 74.34904741 17.3201221 84.31350958 17.34643555 94.27807617 C17.36937924 102.96121776 17.4027364 111.64424553 17.44870156 120.32729691 C17.4726829 124.92670944 17.49137941 129.52600889 17.49761391 134.12548256 C17.50364265 138.45193345 17.52356179 142.77809486 17.55427551 147.10443878 C17.56309136 148.69475231 17.56677102 150.28510361 17.56500816 151.8754406 C17.56336413 154.0423644 17.57997833 156.20839652 17.60127258 158.37519836 C17.60588155 159.58919972 17.61049051 160.80320108 17.61523914 162.05399036 C17.7514634 164.98862897 17.7514634 164.98862897 19.39992046 166.8515501 C21.00915871 168.07050493 21.00915871 168.07050493 23 169 C23 173.62 23 178.24 23 183 C10.63116147 183.43399433 10.63116147 183.43399433 6.48828125 179.6015625 C2.62285171 175.06051348 1.83906812 172.22642125 1.4375 166.375 C1.31181641 164.59222656 1.31181641 164.59222656 1.18359375 162.7734375 C1.12300781 161.85820312 1.06242187 160.94296875 1 160 C0.33355469 160.78503906 -0.33289062 161.57007813 -1.01953125 162.37890625 C-7.02357505 169.28718677 -12.85504582 174.61425544 -21 179 C-21.67933594 179.40863281 -22.35867188 179.81726563 -23.05859375 180.23828125 C-35.4110465 186.85996645 -51.91690027 185.70949605 -64.921875 182.21484375 C-81.08700319 176.9406282 -92.82230978 165.52515049 -101.02929688 150.91748047 C-109.78635877 133.61919975 -110.77239227 112.08281312 -105.3125 93.63671875 C-98.95172242 76.0120642 -88.33685036 62.80798137 -71.3125 54.6875 C-59.57387993 49.33131527 -43.6295197 48.86519858 -31.36328125 53.04296875 C-30.58339844 53.35878906 -29.80351563 53.67460938 -29 54 C-28.18917969 54.30550781 -27.37835937 54.61101562 -26.54296875 54.92578125 C-15.9706015 59.50436549 -8.34779664 68.42757059 -1 77 C-0.67 51.59 -0.34 26.18 0 0 Z M-79 81.3515625 C-86.80811447 91.95309723 -91.41243798 103.55675863 -91.3125 116.75 C-91.30686035 117.53640869 -91.3012207 118.32281738 -91.29541016 119.13305664 C-90.98685067 134.06458617 -85.61001476 145.95278961 -75.3515625 156.77734375 C-65.58942856 166.0043441 -53.81687284 170.41132758 -40.5078125 170.27734375 C-27.75071772 169.26870931 -16.05077462 162.5441059 -7.0703125 153.734375 C-1.51121915 146.39217623 0.77015491 139.68595305 0.69921875 130.53125 C0.70637405 129.57029419 0.71352936 128.60933838 0.72090149 127.6192627 C0.72863083 125.60246701 0.72376847 123.58558666 0.70678711 121.56884766 C0.68754094 118.5065139 0.72704002 115.44871414 0.77148438 112.38671875 C0.92195703 98.12117811 0.92195703 98.12117811 -6 86 C-6.9171635 84.77120401 -7.83390955 83.54209618 -8.75 82.3125 C-16.36220016 73.86335636 -28.79069334 66.30513391 -40.3203125 65.62890625 C-56.08974632 65.22326165 -68.41092344 68.90112483 -79 81.3515625 Z " transform="translate(1314,70)" style="fill: #010101;"/><path d="M0 0 C-1.37287342 3.69876091 -3.06355453 6.9514476 -5.125 10.3125 C-5.66382813 11.19550781 -6.20265625 12.07851562 -6.7578125 12.98828125 C-7.16773438 13.65214844 -7.57765625 14.31601563 -8 15 C-8.46148438 14.63648438 -8.92296875 14.27296875 -9.3984375 13.8984375 C-23.98131787 2.65866805 -38.81966738 -3.41652123 -57.3125 -3.3125 C-58.83435913 -3.30621582 -58.83435913 -3.30621582 -60.38696289 -3.29980469 C-72.42204413 -3.11825969 -84.30157905 -0.81288674 -93.6171875 7.3828125 C-99.71642931 14.51582411 -101.3794606 23.03940459 -101.28125 32.1484375 C-100.71967296 37.84220466 -98.37225995 42.15602569 -95 46.6875 C-81.3071135 57.24243334 -62.78804803 60.3139057 -46.25 64 C-28.40723914 68.025688 -7.47108437 73.22387728 3.4609375 89.125 C8.8581771 98.11000002 9.38870175 106.69940355 9 117 C9.00773437 118.12535156 9.00773437 118.12535156 9.015625 119.2734375 C8.67526455 128.42913364 3.29137598 138.06280332 -2.9375 144.5625 C-17.51452953 157.61241215 -36.06164359 160.37405037 -55 160.25 C-56.18078125 160.25773438 -57.3615625 160.26546875 -58.578125 160.2734375 C-83.63053029 160.21825599 -107.59780405 152.34762885 -126 135 C-124.6744419 131.37723685 -123.05653045 128.36494652 -120.875 125.1875 C-120.33617187 124.39730469 -119.79734375 123.60710937 -119.2421875 122.79296875 C-118.83226562 122.20128906 -118.42234375 121.60960937 -118 121 C-115.22642051 122.82472335 -112.47605081 124.65140251 -109.796875 126.61328125 C-93.23384813 138.66154757 -75.15181391 144.15400324 -54.8125 144.25 C-53.73935547 144.270625 -52.66621094 144.29125 -51.56054688 144.3125 C-39.22356987 144.37220709 -25.74307353 141.4014382 -16.5078125 132.66015625 C-10.39945248 125.93463032 -10.25862958 118.75520274 -10.62109375 110.01171875 C-11.10755294 103.39190887 -13.3448841 99.33270416 -18.125 94.8125 C-31.8077663 84.13185964 -50.60790075 80.91060841 -67.16064453 77.09863281 C-83.72577991 73.26145095 -104.64192207 68.30094773 -114.75 53.33984375 C-120.96823501 41.7000851 -121.87974825 28.75976468 -118.375 16.125 C-116.36674682 10.40112856 -113.83929418 5.68861885 -110 1 C-109.39800781 0.25105469 -108.79601563 -0.49789062 -108.17578125 -1.26953125 C-82.11469149 -30.40831161 -27.19510553 -23.21198401 0 0 Z " transform="translate(2007,93)" style="fill: #020202;"/><path d="M0 0 C5.3463912 4.6572363 10.88537042 9.95373692 13.75390625 16.5703125 C12.75390625 19.5703125 12.75390625 19.5703125 11.11499023 20.44580078 C10.06807007 20.78973877 10.06807007 20.78973877 9 21.140625 C8.22720703 21.39714844 7.45441406 21.65367187 6.65820312 21.91796875 C5.43713867 22.30275391 5.43713867 22.30275391 4.19140625 22.6953125 C3.01094727 23.09169922 3.01094727 23.09169922 1.80664062 23.49609375 C-3.2059825 25.12426647 -7.95715679 26.47394387 -13.24609375 26.5703125 C-15.35546875 24.91015625 -15.35546875 24.91015625 -16.99609375 22.5078125 C-21.96821695 16.18413993 -29.26480082 12.01007515 -37.24609375 10.5703125 C-48.72337211 9.6952121 -57.65115133 11.61646629 -66.921875 18.55859375 C-74.6505721 25.2481383 -79.04750302 33.65299483 -81.24609375 43.5703125 C-81.36729282 46.33252391 -81.43119213 49.05845013 -81.43359375 51.8203125 C-81.45196289 52.90892578 -81.45196289 52.90892578 -81.47070312 54.01953125 C-81.50216855 65.78760009 -77.20551677 76.87560791 -69.24609375 85.5703125 C-66.73612414 87.86802252 -64.12363213 89.75912447 -61.24609375 91.5703125 C-60.62605469 91.98539062 -60.00601563 92.40046875 -59.3671875 92.828125 C-51.18322872 97.40857942 -40.1748916 96.72249844 -31.2109375 94.98046875 C-23.49158019 92.32579278 -16.73322368 86.30100739 -12.24609375 79.5703125 C-2.90765708 80.89589567 5.82559089 83.63528286 14.75390625 86.5703125 C11.68409842 97.25262359 2.90051827 106.15165201 -6.6875 111.484375 C-24.57705456 120.7052401 -43.12492077 123.66096664 -62.94140625 118.671875 C-82.16719002 112.26328041 -95.51909477 99.82047 -104.58203125 82.0234375 C-112.06356888 66.49836881 -113.12862387 46.30438289 -107.43383789 29.97460938 C-100.91323391 12.77527092 -89.54036683 0.0733717 -73.05859375 -8.1796875 C-49.78500277 -18.042482 -20.1322623 -15.77204968 0 0 Z " transform="translate(3372.24609375,140.4296875)" style="fill: #010101;"/><path d="M0 0 C1.71484375 1.55078125 1.71484375 1.55078125 3.96484375 4.42578125 C3.62198911 7.35040771 2.49902367 9.44421179 0.8984375 11.87890625 C0.49560547 12.49765625 0.09277344 13.11640625 -0.32226562 13.75390625 C-0.74314453 14.388125 -1.16402344 15.02234375 -1.59765625 15.67578125 C-2.02240234 16.32546875 -2.44714844 16.97515625 -2.88476562 17.64453125 C-3.92988685 19.24157043 -4.98185462 20.83412545 -6.03515625 22.42578125 C-9.80546524 21.06090237 -12.85573387 19.30962521 -16.16015625 17.05078125 C-25.57659632 11.09242617 -33.04667543 9.072193 -44.16015625 8.92578125 C-45.09061768 8.90717041 -46.0210791 8.88855957 -46.97973633 8.86938477 C-53.35996284 8.92771115 -58.54309408 10.0771053 -64.03515625 13.42578125 C-67.26821285 16.81654793 -68.27491311 19.40976701 -68.47265625 23.98828125 C-68.23937121 27.96745746 -67.85484232 30.44023129 -65.03515625 33.42578125 C-57.10299928 38.33631438 -48.15149818 40.74744145 -39.28515625 43.36328125 C-3.96398131 53.80059685 -3.96398131 53.80059685 4.08984375 67.53125 C7.8452694 75.66241714 7.17070745 88.02210766 4.46484375 96.42578125 C0.41828351 105.74984837 -6.85872229 112.29134397 -16.03515625 116.42578125 C-37.58056817 123.99579084 -61.4683274 123.47212593 -82.38671875 113.890625 C-89.62220234 110.17121365 -95.90084705 105.7569529 -102.03515625 100.42578125 C-100.43892481 96.03194419 -98.25491292 92.13582318 -95.91015625 88.11328125 C-95.53761719 87.46810547 -95.16507813 86.82292969 -94.78125 86.15820312 C-93.86883412 84.5790218 -92.95240116 83.00216261 -92.03515625 81.42578125 C-91.50148438 81.78929687 -90.9678125 82.1528125 -90.41796875 82.52734375 C-87.96935303 84.17952391 -85.50590533 85.80688745 -83.03515625 87.42578125 C-82.25398438 87.94011719 -81.4728125 88.45445312 -80.66796875 88.984375 C-67.10629348 97.543793 -51.90021037 101.92731955 -35.94140625 98.82421875 C-33.58676453 98.12208161 -31.32090928 97.32391603 -29.03515625 96.42578125 C-28.04515625 96.13703125 -27.05515625 95.84828125 -26.03515625 95.55078125 C-23.29454133 94.00918536 -22.91899889 92.37192337 -22.03515625 89.42578125 C-21.70515625 88.76578125 -21.37515625 88.10578125 -21.03515625 87.42578125 C-20.63844996 80.63902023 -20.63844996 80.63902023 -23.03515625 74.42578125 C-26.79269571 72.70611454 -30.74192886 71.47896109 -34.66015625 70.17578125 C-35.30259277 69.96179688 -35.9450293 69.7478125 -36.60693359 69.52734375 C-41.12851256 68.0305452 -45.66813762 66.59861725 -50.21679688 65.18652344 C-83.51142953 54.82020895 -83.51142953 54.82020895 -92.03515625 41.42578125 C-93.98201075 36.64453563 -94.38738194 32.22030198 -94.34765625 27.11328125 C-94.3420166 26.35926025 -94.33637695 25.60523926 -94.33056641 24.82836914 C-94.12377933 15.34380342 -91.57568351 8.42428854 -85.03515625 1.42578125 C-63.18210023 -19.06412118 -23.20738571 -17.95120238 0 0 Z " transform="translate(3019.03515625,139.57421875)" style="fill: #020202;"/><path d="M0 0 C7.89052217 6.73446333 14.53037675 14.34204016 17.57421875 24.38671875 C15.64432657 25.58654319 13.70502647 26.77124693 11.76171875 27.94921875 C10.68277344 28.61050781 9.60382813 29.27179688 8.4921875 29.953125 C5.57421875 31.38671875 5.57421875 31.38671875 2.57421875 30.38671875 C1.14453125 28.53125 1.14453125 28.53125 -0.30078125 26.19921875 C-8.76954878 13.15608043 -20.61014986 6.23693729 -35.61328125 2.07421875 C-53.98601253 -1.39989771 -71.03782364 3.17087122 -86.44140625 13.38671875 C-100.90280892 24.37415318 -110.04837101 42.22971248 -113.11230469 59.95507812 C-116.25674357 84.34651995 -110.47826832 106.4972034 -95.484375 125.9921875 C-89.44024598 133.02264497 -82.51114904 137.94605043 -74.42578125 142.38671875 C-73.47703125 142.94359375 -72.52828125 143.50046875 -71.55078125 144.07421875 C-56.29197065 150.4829192 -40.82959525 149.87836546 -25.42578125 144.38671875 C-11.18269751 138.51694433 -1.15879192 129.71785985 6.57421875 116.38671875 C11.54631437 118.15101074 16.00859936 120.78063535 20.57421875 123.38671875 C18.95918496 133.68704535 10.41405754 142.01413928 2.57421875 148.38671875 C-5.61980443 154.24407081 -14.9034995 158.22380122 -24.42578125 161.38671875 C-25.12783691 161.64710938 -25.82989258 161.9075 -26.55322266 162.17578125 C-33.81600292 164.67416582 -40.66958136 164.83564857 -48.30078125 164.76171875 C-49.49058594 164.77332031 -50.68039062 164.78492188 -51.90625 164.796875 C-63.23441923 164.75973346 -73.12641138 162.71858429 -83.05078125 157.19921875 C-83.77515381 156.80484619 -84.49952637 156.41047363 -85.24584961 156.00415039 C-91.1555046 152.70544638 -96.42642884 148.9633318 -101.42578125 144.38671875 C-102.10640625 143.78601563 -102.78703125 143.1853125 -103.48828125 142.56640625 C-113.19348734 133.50568651 -120.34421953 121.56504782 -125.42578125 109.38671875 C-125.71646484 108.69852051 -126.00714844 108.01032227 -126.30664062 107.30126953 C-135.01920402 85.71699962 -134.39869879 59.59421677 -125.73046875 38.08203125 C-115.69157897 14.61273487 -98.98278623 -1.81450711 -75.42578125 -11.61328125 C-51.72761523 -20.22036334 -19.80549431 -15.78313539 0 0 Z " transform="translate(1544.42578125,88.61328125)" style="fill: #020202;"/><path d="M0 0 C8.91 0 17.82 0 27 0 C27 14.19 27 28.38 27 43 C36.24 43 45.48 43 55 43 C55 49.93 55 56.86 55 64 C45.76 64 36.52 64 27 64 C27.04035598 73.80580634 27.09747057 83.61112491 27.18390274 93.41663551 C27.22337293 97.9699915 27.2555636 102.52315422 27.27099609 107.07666016 C27.28616579 111.47299746 27.3206166 115.86880346 27.36830902 120.26490402 C27.38311964 121.94013215 27.39104083 123.61543614 27.39188385 125.29072952 C27.39425632 127.64182087 27.42135578 129.99144721 27.45410156 132.34228516 C27.4490712 133.03136963 27.44404083 133.7204541 27.43885803 134.43041992 C27.54504168 139.37389708 28.95060358 142.16615001 32 146 C35.76447015 149.3215913 39.39302166 149.49447242 44.2265625 149.37109375 C48.32034622 148.82333396 51.94163346 147.43296813 55.75 145.875 C58 145 58 145 60 145 C60.84179395 147.72681111 61.67363069 150.45601443 62.5 153.1875 C62.85771484 154.34088867 62.85771484 154.34088867 63.22265625 155.51757812 C64.40213617 159.44356128 65.3326262 162.85048821 65 167 C48.24117369 174.02148454 33.04743488 178.40214815 15 172 C8.65542664 168.71022122 3.68029691 163.64981833 1.34550476 156.83045959 C-0.13583744 152.11409118 -0.40763503 147.81497858 -0.34057617 142.90014648 C-0.34123329 141.61070381 -0.34123329 141.61070381 -0.34190369 140.29521179 C-0.33983319 137.48693184 -0.31658532 134.67926789 -0.29296875 131.87109375 C-0.28736659 129.91097845 -0.28309942 127.95085893 -0.28010559 125.99073792 C-0.26870562 120.85655925 -0.23928054 115.7226392 -0.20599365 110.58856201 C-0.17518782 105.33967587 -0.16157787 100.09074755 -0.14648438 94.84179688 C-0.11440583 84.56106659 -0.06167788 74.28059536 0 64 C-5.94 64 -11.88 64 -18 64 C-18 57.07 -18 50.14 -18 43 C-12.06 43 -6.12 43 0 43 C0 28.81 0 14.62 0 0 Z " transform="translate(3411,86)" style="fill: #000000;"/><path d="M0 0 C8.91 0 17.82 0 27 0 C27 14.19 27 28.38 27 43 C36.24 43 45.48 43 55 43 C55 49.93 55 56.86 55 64 C45.76 64 36.52 64 27 64 C27.04035598 73.80580634 27.09747057 83.61112491 27.18390274 93.41663551 C27.22337293 97.9699915 27.2555636 102.52315422 27.27099609 107.07666016 C27.28616579 111.47299746 27.3206166 115.86880346 27.36830902 120.26490402 C27.38311964 121.94013215 27.39104083 123.61543614 27.39188385 125.29072952 C27.39425632 127.64182087 27.42135578 129.99144721 27.45410156 132.34228516 C27.4490712 133.03136963 27.44404083 133.7204541 27.43885803 134.43041992 C27.54504168 139.37389708 28.95060358 142.16615001 32 146 C35.76447015 149.3215913 39.39302166 149.49447242 44.2265625 149.37109375 C48.32034622 148.82333396 51.94163346 147.43296813 55.75 145.875 C58 145 58 145 60 145 C60.84179395 147.72681111 61.67363069 150.45601443 62.5 153.1875 C62.85771484 154.34088867 62.85771484 154.34088867 63.22265625 155.51757812 C64.40213617 159.44356128 65.3326262 162.85048821 65 167 C48.24117369 174.02148454 33.04743488 178.40214815 15 172 C8.65542664 168.71022122 3.68029691 163.64981833 1.34550476 156.83045959 C-0.13583744 152.11409118 -0.40763503 147.81497858 -0.34057617 142.90014648 C-0.34123329 141.61070381 -0.34123329 141.61070381 -0.34190369 140.29521179 C-0.33983319 137.48693184 -0.31658532 134.67926789 -0.29296875 131.87109375 C-0.28736659 129.91097845 -0.28309942 127.95085893 -0.28010559 125.99073792 C-0.26870562 120.85655925 -0.23928054 115.7226392 -0.20599365 110.58856201 C-0.17518782 105.33967587 -0.16157787 100.09074755 -0.14648438 94.84179688 C-0.11440583 84.56106659 -0.06167788 74.28059536 0 64 C-5.94 64 -11.88 64 -18 64 C-18 57.07 -18 50.14 -18 43 C-12.06 43 -6.12 43 0 43 C0 28.81 0 14.62 0 0 Z " transform="translate(3051,86)" style="fill: #000000;"/><path d="M0 0 C5.61 0 11.22 0 17 0 C17.33 26.4 17.66 52.8 18 80 C20.97 75.545 20.97 75.545 24 71 C32.67250937 61.11333932 44.78234351 52.9554889 58 51 C80.35608201 49.57006326 80.35608201 49.57006326 89 55 C89.71027344 55.42410156 90.42054688 55.84820312 91.15234375 56.28515625 C96.55429532 59.89651679 99.83942688 64.38644476 103 70 C103.38027344 70.65355469 103.76054688 71.30710937 104.15234375 71.98046875 C111.05764026 85.45231137 110.42103362 101.98252257 110.29296875 116.69140625 C110.28735625 118.61766729 110.283094 120.54393269 110.28010559 122.47019958 C110.26878679 127.47932276 110.23943531 132.48817459 110.20599365 137.49719238 C110.1750091 142.63285657 110.16154032 147.76856567 110.14648438 152.90429688 C110.1145498 162.93633481 110.06189199 172.96810213 110 183 C104.39 183 98.78 183 93 183 C92.98541748 180.55899902 92.97083496 178.11799805 92.95581055 175.60302734 C92.90520756 167.48849526 92.83856912 159.37414993 92.76428509 151.25980186 C92.71978126 146.34574435 92.6804825 141.43176593 92.65356445 136.51757812 C92.62733028 131.76468132 92.58678985 127.01209229 92.53681374 122.25938797 C92.52027977 120.45679207 92.50868246 118.65414312 92.50238609 116.85148239 C92.44095001 100.86172127 92.01473084 84.01473084 80 72 C71.87636218 67.0143164 64.45546129 66.27890682 55 67 C51.38068915 67.88584531 48.28432842 69.25740591 45 71 C43.75283203 71.63615234 43.75283203 71.63615234 42.48046875 72.28515625 C31.66239642 78.25088277 23.52531547 87.13432385 18.94546509 98.65200806 C17.86069852 102.4932813 17.69291637 106.06856818 17.68115234 110.02490234 C17.67110672 110.80606415 17.6610611 111.58722595 17.65071106 112.39205933 C17.61998716 114.95667836 17.60287418 117.52119352 17.5859375 120.0859375 C17.56721715 121.87099087 17.54764309 123.65603548 17.5272522 125.44107056 C17.47601657 130.12631044 17.43634506 134.81157898 17.39910889 139.49694824 C17.35901543 144.28319337 17.30794749 149.06932014 17.2578125 153.85546875 C17.16115463 163.23690412 17.07773245 172.61838871 17 182 C11.39 182 5.78 182 0 182 C0 121.94 0 61.88 0 0 Z " transform="translate(743,70)" style="fill: #020202;"/><path d="M0 0 C5.61 0 11.22 0 17 0 C17.33 26.07 17.66 52.14 18 79 C20.31 76.03 22.62 73.06 25 70 C34.23775977 59.69634488 46.92100335 51.75079687 61.00317383 50.87548828 C74.09414736 50.40095339 85.69822098 50.90456313 96 60 C109.62511794 75.59079701 109.30349517 94.428295 109.1953125 113.95703125 C109.19157462 115.95627195 109.18873132 117.95551449 109.18673706 119.95475769 C109.17916161 125.17429816 109.15956658 130.39372437 109.1373291 135.61322021 C109.11673832 140.9563238 109.10770726 146.29944615 109.09765625 151.64257812 C109.07631397 162.09510993 109.04118265 172.54752752 109 183 C103.39 183 97.78 183 92 183 C91.9906543 180.40229736 91.98130859 177.80459473 91.97167969 175.12817383 C91.93776793 166.50271843 91.88214083 157.8774987 91.81609726 149.25223255 C91.77674846 144.02759946 91.74449852 138.80313175 91.72900391 133.57836914 C91.71375395 128.52716676 91.67916203 123.47641942 91.63169098 118.42542076 C91.61696267 116.50756494 91.60896395 114.58964413 91.60811615 112.67173195 C91.59573192 98.69145613 91.27362807 83.81434534 81 73 C72.72308744 67.10411708 65.025716 66.13042259 55 67 C41.81936132 70.11293886 31.42573214 78.07922274 23.71875 89.03125 C22.86796875 90.50078125 22.86796875 90.50078125 22 92 C21.6629303 92.52959824 21.3258606 93.05919647 20.97857666 93.60484314 C16.59094172 101.63702108 17.39485221 110.71504788 17.390625 119.59765625 C17.37562676 121.40084812 17.35889619 123.20402633 17.34051514 125.00718689 C17.29701375 129.72696602 17.27688089 134.44655987 17.26177979 139.16650391 C17.24214636 143.99327471 17.20018352 148.81984724 17.16015625 153.64648438 C17.08504053 163.09762841 17.03670313 172.54862866 17 182 C11.39 182 5.78 182 0 182 C0 121.94 0 61.88 0 0 Z " transform="translate(2168,70)" style="fill: #020202;"/><path d="M0 0 C0.80824219 0.61488281 1.61648437 1.22976562 2.44921875 1.86328125 C3.22652344 2.44722656 4.00382812 3.03117188 4.8046875 3.6328125 C17.55798681 14.05934808 25.86761702 29.76677666 28.07421875 45.98828125 C29.83605845 65.43500252 26.25826979 84.70087767 13.8359375 100.2890625 C1.64889346 114.57439381 -14.10424001 122.50962277 -32.8046875 124.1484375 C-50.59664814 124.65054191 -66.57172498 119.05491325 -80.01953125 107.3671875 C-94.65453328 92.89027963 -100.72162548 75.180523 -101.05078125 54.98828125 C-100.987243 36.79309533 -94.46454162 21.37559468 -81.8515625 8.10546875 C-60.12678783 -13.06604341 -25.42848469 -17.75052668 0 0 Z M-72.30078125 22.11328125 C-82.43481664 35.98469139 -85.09963381 50.07635584 -83.55078125 66.86328125 C-81.32879708 80.49512352 -73.28289899 93.03839206 -62.2421875 101.2109375 C-51.08939844 108.05800538 -39.30845959 110.84102802 -26.3515625 108.21484375 C-12.40224709 103.94799433 -2.08407937 95.81012357 4.74926758 82.97998047 C11.82511519 69.04684425 13.90902956 55.09311327 9.48828125 39.703125 C7.67415149 34.74495832 5.2748668 30.31317354 2.44921875 25.86328125 C1.95808594 25.08082031 1.46695313 24.29835938 0.9609375 23.4921875 C-5.49011295 14.25581998 -15.58226569 7.43234135 -26.55078125 4.86328125 C-29.83520429 4.43601205 -33.05342538 4.33761848 -36.36328125 4.36328125 C-37.23839355 4.36972656 -38.11350586 4.37617188 -39.01513672 4.3828125 C-52.87612401 4.77232444 -63.5520835 11.54592642 -72.30078125 22.11328125 Z " transform="translate(2399.55078125,131.13671875)" style="fill: #020202;"/><path d="M0 0 C1.5619825 1.52107952 3.10470522 3.0622537 4.625 4.625 C5.33269531 5.31207031 6.04039062 5.99914062 6.76953125 6.70703125 C18.5777818 18.87652847 23.16722356 34.42628754 23 51 C23.01160156 52.14210938 23.02320312 53.28421875 23.03515625 54.4609375 C22.97470328 72.19380913 16.68026545 87.61441162 4.625 100.625 C3.98304688 101.32109375 3.34109375 102.0171875 2.6796875 102.734375 C-7.69156663 112.90845699 -23.2064962 119.53288372 -37.6875 119.9375 C-58.23062072 119.25569368 -74.96709457 113.63929876 -89.375 98.625 C-104.19333844 80.54893346 -106.38863625 62.23874197 -105.375 39.625 C-103.87404931 25.36596842 -95.44298713 12.42378961 -85.375 2.625 C-84.49134766 1.69300781 -84.49134766 1.69300781 -83.58984375 0.7421875 C-61.63804007 -20.77540468 -22.55711377 -19.78936975 0 0 Z M-77.67578125 18.1875 C-87.59948416 32.42288073 -89.66240662 46.6795104 -88.375 63.625 C-86.08785846 76.1133126 -78.24154964 88.96898786 -67.88671875 96.4140625 C-57.00486772 103.11820745 -47.24451651 105.77710321 -34.375 104.625 C-25.99670805 102.59813479 -18.75559493 99.45823997 -12.375 93.625 C-11.529375 92.861875 -10.68375 92.09875 -9.8125 91.3125 C3.58873323 76.53678132 6.46650703 62.67681895 5.79980469 43.22363281 C4.95269844 30.6306176 -2.8024914 19.24644177 -11.69921875 10.703125 C-33.05918823 -5.88593159 -60.45733956 -2.3622486 -77.67578125 18.1875 Z " transform="translate(2547.375,135.375)" style="fill: #020202;"/><path d="M0 0 C11.62836667 11.15276885 14.26645417 27.28405436 14.67866898 42.7656517 C14.76410574 48.50371857 14.73984038 54.24197984 14.72265625 59.98046875 C14.72078775 61.82562725 14.71936589 63.67078626 14.71836853 65.51594543 C14.71457737 70.33763026 14.7047767 75.15928426 14.69366455 79.98095703 C14.68337673 84.91503482 14.67885522 89.84911767 14.67382812 94.78320312 C14.6631509 104.43881771 14.64558223 114.09440145 14.625 123.75 C9.015 123.75 3.405 123.75 -2.375 123.75 C-2.38958252 121.24841309 -2.40416504 118.74682617 -2.41918945 116.16943359 C-2.4697828 107.85533466 -2.53641973 99.54141818 -2.61071491 91.22749901 C-2.65522675 86.19237275 -2.69452389 81.15732384 -2.72143555 76.12207031 C-2.74766153 71.25246792 -2.78819661 66.38316632 -2.83818626 61.51375198 C-2.85472565 59.6664978 -2.86631965 57.81919174 -2.87261391 55.97187424 C-2.89147192 34.05085105 -2.89147192 34.05085105 -12.375 14.75 C-20.35480736 8.23587154 -28.48636869 7.94848986 -38.375 8.75 C-46.10513064 10.47872045 -52.86572879 14.33579543 -59.375 18.75 C-59.98988281 19.15476563 -60.60476563 19.55953125 -61.23828125 19.9765625 C-68.38792126 25.33468352 -74.66276288 35.33818412 -77.375 43.75 C-77.57959355 46.45100475 -77.6859574 49.05233396 -77.69384766 51.75317383 C-77.70389328 52.54394318 -77.7139389 53.33471252 -77.72428894 54.14944458 C-77.75507317 56.75196637 -77.77214274 59.35438551 -77.7890625 61.95703125 C-77.80777799 63.76593404 -77.82735169 65.57482814 -77.8477478 67.38371277 C-77.8990348 72.13637156 -77.93867891 76.88905865 -77.97589111 81.6418457 C-78.01595226 86.49502543 -78.06703498 91.3480878 -78.1171875 96.20117188 C-78.21390624 105.7173736 -78.29730498 115.23362392 -78.375 124.75 C-83.985 124.75 -89.595 124.75 -95.375 124.75 C-95.375 81.52 -95.375 38.29 -95.375 -6.25 C-90.095 -6.25 -84.815 -6.25 -79.375 -6.25 C-79.045 2.66 -78.715 11.57 -78.375 20.75 C-75.735 17.45 -73.095 14.15 -70.375 10.75 C-52.69668061 -5.45512611 -21.00247732 -16.96503251 0 0 Z " transform="translate(1169.375,128.25)" style="fill: #040404;"/><path d="M0 0 C5.61 0 11.22 0 17 0 C20.28566737 6.44721907 23.3358327 12.91155537 26.1171875 19.58984375 C26.49132278 20.4799968 26.86545807 21.37014984 27.25093079 22.28727722 C28.04904243 24.18694861 28.84568686 26.087237 29.64096069 27.98809814 C31.74728155 33.02228678 33.86450795 38.05188872 35.98046875 43.08203125 C36.61747459 44.59751556 36.61747459 44.59751556 37.26734924 46.14361572 C41.19836048 55.48901911 45.18340822 64.81071952 49.1875 74.125 C50.39091569 76.92565645 51.59406571 79.72642681 52.796875 82.52734375 C53.07495499 83.17486603 53.35303497 83.82238831 53.63954163 84.48953247 C57.1373012 92.64104589 60.57984548 100.81566857 64 109 C67.31858229 105.24899638 68.6883799 100.94228105 70.375 96.3125 C71.08395824 94.40941774 71.7950433 92.50712696 72.5078125 90.60546875 C72.90129883 89.55536621 73.29478516 88.50526367 73.70019531 87.42333984 C76.15222215 80.96535331 78.70773489 74.54784953 81.25 68.125 C85.64979984 56.99651944 90.00552358 45.85222846 94.3125 34.6875 C98.78719215 23.08926816 103.34053386 11.52532654 108 0 C113.61 0 119.22 0 125 0 C123.01262285 6.96381949 120.67214071 13.60534316 117.89453125 20.2890625 C117.49891998 21.25233459 117.10330872 22.21560669 116.69570923 23.20806885 C115.84737214 25.27264673 114.9969947 27.33638723 114.14474487 29.39935303 C111.8545684 34.94435527 109.58070583 40.49605002 107.3046875 46.046875 C106.84636032 47.1635556 106.38803314 48.28023621 105.91581726 49.43075562 C102.03593461 58.89099847 98.22117111 68.37595046 94.4375 77.875 C93.17121823 81.04973685 91.90409763 84.22413847 90.63671875 87.3984375 C90.29695511 88.24943024 89.95719147 89.10042297 89.60713196 89.97720337 C84.59655257 102.52074864 79.56722823 115.05678057 74.52800274 127.58884239 C72.99196771 131.40891649 71.45709885 135.22944859 69.92526245 139.0512085 C68.47241393 142.67578565 67.01629461 146.2990321 65.55779076 149.92133713 C65.01610179 151.26823991 64.47555361 152.61560214 63.93624306 153.96345901 C54.43009897 177.71369469 54.43009897 177.71369469 44.1875 183.4375 C37.03901041 186.37437947 28.5688671 185.29393659 21 185 C21 179.72 21 174.44 21 169 C24.3103125 168.9071875 24.3103125 168.9071875 27.6875 168.8125 C32.02434237 168.69090629 34.25327322 168.57804174 37.71484375 165.8984375 C40.22855248 162.7101095 42.12280138 159.45252768 43.875 155.8125 C44.32552734 154.92788086 44.32552734 154.92788086 44.78515625 154.02539062 C45.4653248 152.64423204 46.10862707 151.24464999 46.72583008 149.83422852 C47.43756742 148.25105957 48.17033061 146.67553719 48.97714233 145.13864136 C54.21062622 135.32923 54.21062622 135.32923 54.2578125 124.5534668 C52.64548275 119.79711387 50.36140024 115.39054941 48.0625 110.9375 C47.25475313 109.25716344 46.45378335 107.57355442 45.65917969 105.88696289 C43.99113274 102.36051365 42.29445254 98.8501255 40.57666016 95.34765625 C36.76716543 87.51959935 33.33567774 79.52693845 29.87854004 71.53881836 C28.01704718 67.24802196 26.12970898 62.96861784 24.24609375 58.6875 C19.87264313 48.72764242 15.53692085 38.75157987 11.22680664 28.76416016 C9.05619257 23.73624793 6.88107858 18.71166692 4.6484375 13.7109375 C4.30965576 12.94982666 3.97087402 12.18871582 3.62182617 11.40454102 C2.77734537 9.51367194 1.92617753 7.62579282 1.07421875 5.73828125 C0 3 0 3 0 0 Z " transform="translate(1697,123)" style="fill: #030303;"/><path d="M0 0 C2.51460208 2.19255655 4.81533023 4.47980074 7 7 C5.62159784 9.83338222 4.13581614 12.55688806 2.5 15.25 C2.0771875 15.95640625 1.654375 16.6628125 1.21875 17.390625 C0.8165625 17.92171875 0.414375 18.4528125 0 19 C-0.66 19 -1.32 19 -2 19 C-2.66 18.29875 -3.32 17.5975 -4 16.875 C-13.00823556 7.54882672 -25.9079735 3.92298081 -38.5 3.6875 C-49.06712293 3.67657352 -58.81893428 5.58128916 -66.54296875 13.2890625 C-70.29045058 17.68959076 -70.38323177 21.96234473 -70.25 27.56640625 C-69.7754002 32.18633867 -68.14661449 34.99864917 -64.6875 38.01953125 C-57.03735022 43.65706895 -47.44746609 45.81103888 -38.4375 48.375 C-0.3707921 59.26217298 -0.3707921 59.26217298 6.625 70.75 C10.27457773 79.37627464 10.36779097 89.88657418 7.5625 98.8125 C3.18336961 109.01026732 -4.3808376 115.22655017 -14.4140625 119.59375 C-33.32224641 127.00872408 -54.22994397 125.6159385 -72.97412109 118.22119141 C-81.19805417 114.62473852 -87.68260198 109.28887703 -94 103 C-92.35442612 98.70816541 -90.32599824 94.95419701 -88 91 C-84.64636205 92.51804397 -81.96525763 94.49763468 -79.0625 96.75 C-67.92903122 104.9363741 -56.27494232 109.38266397 -42.5 109.25 C-41.29537109 109.26160156 -41.29537109 109.26160156 -40.06640625 109.2734375 C-30.56395087 109.24263538 -20.62492373 106.98244992 -13.32421875 100.515625 C-8.93349634 95.4902554 -7.49257105 90.82090658 -7.69921875 84.2734375 C-8.31097502 79.6495135 -10.06202702 76.55215228 -13.70703125 73.6328125 C-22.73319632 68.07559424 -33.84772701 65.7664065 -44.03979492 63.22753906 C-73.92101635 55.71844075 -73.92101635 55.71844075 -83 44 C-88.02255914 35.11494788 -88.31430046 24.95590181 -85.81640625 15.19140625 C-81.75521063 4.29030223 -73.24816199 -1.96585027 -63.0703125 -6.7421875 C-44.16758975 -14.48605102 -16.67257928 -11.77050863 0 0 Z " transform="translate(712,131)" style="fill: #030303;"/><path d="M0 0 C7.03098263 5.27045133 14.22527855 12.04572361 16 21 C14.10751181 21.67610423 12.2108398 22.34050439 10.3125 23 C9.25675781 23.37125 8.20101562 23.7425 7.11328125 24.125 C4.12563839 24.96468883 2.05866914 25.50719048 -1 25 C-2.703125 23.2421875 -2.703125 23.2421875 -4.25 20.875 C-7.87459156 15.88825092 -11.62579362 12.95177612 -17 10 C-17.67933594 9.58621094 -18.35867187 9.17242187 -19.05859375 8.74609375 C-28.46581861 3.93348495 -41.64473137 4.48811504 -51.7109375 6.8828125 C-64.74492501 11.94227809 -73.76673557 21.31934888 -79.67578125 33.7578125 C-85.67919145 48.45642744 -85.31784648 63.19575264 -80 78 C-74.18372357 91.00374755 -64.6573797 100.34950704 -51.63671875 106.03125 C-40.37028474 110.01414648 -28.76724495 108.8086725 -18 104 C-10.98531188 100.59832915 -5.49068405 96.44076703 -1 90 C-0.505 88.515 -0.505 88.515 0 87 C5.9129304 87.64270983 11.34244531 89.19003784 17 91 C15.7005071 99.43193686 10.04590184 105.71254744 3.6796875 111.08203125 C-10.48066827 121.217213 -27.70390651 125.52441554 -45 124 C-61.17039385 121.15881634 -72.67785403 114.42353833 -84 103 C-84.59554688 102.43796875 -85.19109375 101.8759375 -85.8046875 101.296875 C-96.28495164 90.53336048 -101.20452946 73.57582775 -102 59 C-102.06445312 58.26910156 -102.12890625 57.53820312 -102.1953125 56.78515625 C-103.00148586 41.06477577 -97.25964335 23.9646079 -87.03979492 12.1171875 C-65.01440105 -12.08604083 -28.03620222 -18.99792733 0 0 Z " transform="translate(2130,131)" style="fill: #030303;"/><path d="M0 0 C0 8.25 0 16.5 0 25 C-2.3925 25.226875 -4.785 25.45375 -7.25 25.6875 C-21.09460842 27.29021835 -32.21582067 32.77423029 -41 43.75 C-44.72738032 48.68532765 -45.15804861 52.62858321 -45.20532227 58.68432617 C-45.22017166 59.85541176 -45.22017166 59.85541176 -45.23532104 61.05015564 C-45.26691177 63.63106248 -45.29168388 66.21198773 -45.31640625 68.79296875 C-45.33697787 70.58230569 -45.3579744 72.3716378 -45.37937927 74.16096497 C-45.43457842 78.87092166 -45.48399723 83.58092206 -45.53222656 88.29095459 C-45.58245731 93.09700409 -45.63813517 97.90299012 -45.69335938 102.70898438 C-45.8009146 112.13927071 -45.9018621 121.56961095 -46 131 C-54.91 131 -63.82 131 -73 131 C-73 88.43 -73 45.86 -73 2 C-64.75 2 -56.5 2 -48 2 C-47.67 10.25 -47.34 18.5 -47 27 C-45.824375 25.329375 -44.64875 23.65875 -43.4375 21.9375 C-36.25399177 12.16792881 -27.50702186 3.74383626 -15.49609375 0.27734375 C-10.34529695 -0.29496701 -5.17509382 -0.05227367 0 0 Z " transform="translate(3203,127)" style="fill: #000000;"/><path d="M0 0 C5.28 0 10.56 0 16 0 C16 14.52 16 29.04 16 44 C25.9 44 35.8 44 46 44 C46 48.29 46 52.58 46 57 C36.43 57 26.86 57 17 57 C17.01773155 69.15271491 17.05646249 81.30486596 17.13209057 93.45736122 C17.16637047 99.10037163 17.19147216 104.74311101 17.19555664 110.38623047 C17.19983736 115.83296371 17.22828194 121.27908546 17.27343178 126.7256279 C17.28641392 128.80278333 17.29071194 130.88001191 17.28615379 132.95720291 C17.28125303 135.86878607 17.30731751 138.77857846 17.34057617 141.68994141 C17.32763771 142.97603806 17.32763771 142.97603806 17.31443787 144.28811646 C17.42816647 150.23347032 18.71851767 152.84599234 23 157 C27.87489997 160.41440362 34.33693093 159.55851369 40 159 C42.80272125 158.15180804 45.33808939 157.13725956 47.9765625 155.875 C50 155 50 155 53 155 C53.53603819 156.39006515 54.05317473 157.78742649 54.5625 159.1875 C54.85253906 159.96480469 55.14257812 160.74210938 55.44140625 161.54296875 C56.11174587 164.49152554 56.05399004 166.1612535 55 169 C47.68781554 174.59252052 37.85194513 175.26735602 29 176 C28.21367188 176.08378906 27.42734375 176.16757813 26.6171875 176.25390625 C18.09593593 176.78864066 10.96638373 172.46434035 4.69140625 167.171875 C-0.10030436 161.01900872 -0.4295049 154.38461354 -0.34057617 146.91210938 C-0.34123329 145.44732147 -0.34123329 145.44732147 -0.34190369 143.95294189 C-0.33982638 140.74966912 -0.31654514 137.54693048 -0.29296875 134.34375 C-0.28736904 132.11316209 -0.28310071 129.88257047 -0.28010559 127.65197754 C-0.26868641 121.79937438 -0.23924431 115.94699684 -0.20599365 110.09448242 C-0.17522968 104.11510265 -0.16158674 98.13568621 -0.14648438 92.15625 C-0.11437189 80.43740122 -0.06321091 68.71871942 0 57 C-5.94 57 -11.88 57 -18 57 C-18 52.71 -18 48.42 -18 44 C-12.06 44 -6.12 44 0 44 C0 29.48 0 14.96 0 0 Z " transform="translate(1639,79)" style="fill: #020202;"/><path d="M0 0 C9.24 0 18.48 0 28 0 C28 43.56 28 87.12 28 132 C18.76 132 9.52 132 0 132 C0 88.44 0 44.88 0 0 Z " transform="translate(3216,127)" style="fill: #060606;"/><path d="M0 0 C9.24 0 18.48 0 28 0 C28 43.56 28 87.12 28 132 C18.76 132 9.52 132 0 132 C0 88.44 0 44.88 0 0 Z " transform="translate(2873,127)" style="fill: #060606;"/><path d="M0 0 C5.61 0 11.22 0 17 0 C17.00808685 2.02066589 17.01617371 4.04133179 17.02450562 6.12322998 C17.10153433 25.13530409 17.1894771 44.14730519 17.28752708 63.15928268 C17.33767593 72.93429749 17.38411859 82.70930382 17.421875 92.484375 C17.45478797 101.00306493 17.49461534 109.52168948 17.54279006 118.04030728 C17.56806195 122.55198213 17.5898412 127.06361357 17.60334396 131.57534027 C17.61615804 135.82048224 17.63820538 140.06547536 17.66738319 144.31053543 C17.67646408 145.86979439 17.6821504 147.42907732 17.68421364 148.98836136 C17.6875326 151.11535571 17.70299962 153.24192712 17.7215271 155.36883545 C17.72705786 156.55979198 17.73258862 157.75074852 17.73828697 158.97779465 C17.99430552 161.93424142 18.3385204 163.57109762 20 166 C23.73901575 168.49267716 25.73199317 168.23665805 30.1875 168.1875 C30.85789307 168.18105469 31.52828613 168.17460937 32.21899414 168.16796875 C36.88742191 168.09558126 41.39652425 167.75158788 46 167 C46.33820166 168.5823006 46.67035939 170.16589375 47 171.75 C47.185625 172.63171875 47.37125 173.5134375 47.5625 174.421875 C48 177 48 177 48 181 C37.64869576 184.55476755 23.30644375 187.59058201 12.85546875 183.0625 C6.66067064 179.51516298 3.34541533 175.81716219 0.80896759 169.11131668 C-0.84862491 162.73615993 -0.51767413 156.16595323 -0.45410156 149.62646484 C-0.45297147 147.98954293 -0.4536101 146.35261899 -0.45587158 144.71569824 C-0.45701335 140.29889548 -0.43359173 135.88253239 -0.40557575 131.46583128 C-0.38047194 126.84008771 -0.37821305 122.21433267 -0.37347412 117.58853149 C-0.36107063 108.84102401 -0.32828477 100.09371787 -0.28807616 91.34629881 C-0.24327644 81.38256067 -0.22135083 71.41881262 -0.20129442 61.45499873 C-0.15954967 40.96988398 -0.08843771 20.48496181 0 0 Z " transform="translate(884,70)" style="fill: #050505;"/><path d="M0 0 C5.61 0 11.22 0 17 0 C17.00808685 2.00369659 17.01617371 4.00739319 17.02450562 6.07180786 C17.10157891 24.93609758 17.18953235 43.8003141 17.28752708 62.66450691 C17.33764751 72.36323596 17.38409053 82.06195659 17.421875 91.76074219 C17.4548175 100.21426182 17.49466127 108.66771593 17.54279006 117.12116325 C17.56803254 121.5971313 17.58982051 126.07305601 17.60334396 130.54907608 C17.61618469 134.76303483 17.63826086 138.9768448 17.66738319 143.19072151 C17.67644323 144.73623991 17.68214553 146.28178225 17.68421364 147.82732582 C17.68754735 149.94048223 17.70305419 152.05321966 17.7215271 154.16629028 C17.72705786 155.34802889 17.73258862 156.52976749 17.73828697 157.74731636 C18.01380436 161.17156657 18.60589092 163.86006339 20 167 C23.63313422 168.21104474 26.96954476 168.14569592 30.75 168.125 C31.4409375 168.12886719 32.131875 168.13273438 32.84375 168.13671875 C37.32653965 168.12829245 41.5767176 167.72949422 46 167 C47.34911472 171.89054085 48.11704968 175.89370776 48 181 C37.8488094 184.10990232 23.98338758 187.65186635 13.75 183.3125 C11.72265625 182.16015625 11.72265625 182.16015625 10 181 C9.071875 180.4225 8.14375 179.845 7.1875 179.25 C1.77421084 173.68204544 -0.12599224 166.93971601 -0.12025452 159.3372345 C-0.12110894 158.65680153 -0.12196337 157.97636856 -0.12284368 157.27531642 C-0.12449353 154.9905652 -0.1189852 152.70588706 -0.11352539 150.42114258 C-0.11324339 148.78525291 -0.11340151 147.14936311 -0.1139679 145.51347351 C-0.11425535 141.06750092 -0.10836694 136.62155519 -0.10139394 132.17558885 C-0.09515183 127.53109768 -0.09455592 122.88660592 -0.09336853 118.24211121 C-0.09025775 109.44487888 -0.08204776 100.64765896 -0.07201904 91.8504321 C-0.06085006 81.83604448 -0.05534547 71.82165627 -0.05032361 61.80726397 C-0.03986495 41.20483554 -0.02206946 20.60241898 0 0 Z " transform="translate(2594,70)" style="fill: #000000;"/><path d="M0 0 C0.14693721 3.64539921 0.23461003 7.2900238 0.3125 10.9375 C0.35439453 11.95908203 0.39628906 12.98066406 0.43945312 14.03320312 C0.58448199 23.11201003 -2.14220371 28.78528988 -7.9375 35.625 C-18.40969437 45.43555246 -33.64054316 49.67049714 -47.64453125 49.2734375 C-57.33344253 48.4838871 -64.20299895 45.02557276 -71 38 C-76.1014104 31.48853684 -76.85017095 24.68406793 -76.5390625 16.5625 C-75.44472223 9.33033823 -71.7174785 5.00499778 -66 0.6875 C-46.14918817 -11.07230437 -20.73285015 -7.129651 0 0 Z " transform="translate(1027,193)" style="fill: #FCFCFC;"/><path d="M0 0 C3.01189698 3.52466147 4.59234372 7.48991601 6.27807617 11.75024414 C6.59062851 12.52629501 6.90318085 13.30234589 7.22520447 14.10191345 C8.25381937 16.66062384 9.27362908 19.22273812 10.29296875 21.78515625 C11.00575088 23.56602356 11.71891651 25.34673742 12.43244934 27.12730408 C13.9249086 30.85555066 15.41308241 34.58547082 16.89819336 38.31665039 C18.80394272 43.10379254 20.71970055 47.88685283 22.63859081 52.66874027 C24.1119083 56.34314702 25.58022439 60.01953588 27.04699135 63.69656181 C27.75163735 65.46143944 28.45777854 67.22572085 29.16542625 68.98939705 C30.1520365 71.45067151 31.13196367 73.91450126 32.11010742 76.37915039 C32.40461792 77.11013947 32.69912842 77.84112854 33.00256348 78.5942688 C34.16877512 81.55021885 35 83.79138724 35 87 C12.23 87 -10.54 87 -34 87 C-33.15058498 81.90350987 -31.87920458 77.71029011 -29.96484375 72.9909668 C-29.49886276 71.82163353 -29.49886276 71.82163353 -29.02346802 70.62867737 C-28.00066105 68.06647355 -26.96925716 65.50783014 -25.9375 62.94921875 C-25.22342422 61.16675133 -24.50980772 59.38409986 -23.79663086 57.60127258 C-22.30399886 53.87355125 -20.80737861 50.14746598 -19.30761719 46.42260742 C-17.38151092 41.63856929 -15.46301523 36.85152583 -13.54716492 32.06337261 C-12.0755359 28.38664474 -10.60113963 24.7110321 -9.12576294 21.03580666 C-8.41706652 19.27011065 -7.70895666 17.50417911 -7.00143433 15.73801231 C-6.01531435 13.27829022 -5.02577233 10.81997472 -4.03515625 8.36206055 C-3.74109894 7.62702301 -3.44704163 6.89198547 -3.14407349 6.13467407 C-1.11455162 1.11455162 -1.11455162 1.11455162 0 0 Z " transform="translate(533,96)" style="fill: #FBFBFB;"/><path d="M0 0 C5.61 0 11.22 0 17 0 C17 43.23 17 86.46 17 131 C11.39 131 5.78 131 0 131 C0 87.77 0 44.54 0 0 Z " transform="translate(1585,122)" style="fill: #070707;"/><path d="M0 0 C9.24 0 18.48 0 28 0 C28 9.9 28 19.8 28 30 C18.76 30 9.52 30 0 30 C0 20.1 0 10.2 0 0 Z " transform="translate(3216,76)" style="fill: #030303;"/><path d="M0 0 C9.24 0 18.48 0 28 0 C28 9.9 28 19.8 28 30 C18.76 30 9.52 30 0 30 C0 20.1 0 10.2 0 0 Z " transform="translate(2873,76)" style="fill: #030303;"/><path d="M0 0 C5.61 0 11.22 0 17 0 C17 8.25 17 16.5 17 25 C11.39 25 5.78 25 0 25 C0 16.75 0 8.5 0 0 Z " transform="translate(1585,70)" style="fill: #060606;"/></svg>